<svg xmlns="http://www.w3.org/2000/svg" viewBox="0 0 1200 620" role="img" aria-labelledby="title desc">
  <title id="title">AI Interview Category</title>
  <desc id="desc">Illustration of neural networks and AI signals for AI technical tests.</desc>
  <defs>
    <linearGradient id="bg" x1="0" y1="0" x2="1" y2="1">
      <stop offset="0%" stop-color="#1a0d29"/>
      <stop offset="100%" stop-color="#2a1750"/>
    </linearGradient>
    <radialGradient id="glow" cx="50%" cy="45%" r="60%">
      <stop offset="0%" stop-color="#7dd3fc" stop-opacity="0.55"/>
      <stop offset="100%" stop-color="#7dd3fc" stop-opacity="0"/>
    </radialGradient>
  </defs>
  <rect width="1200" height="620" fill="url(#bg)" rx="28"/>
  <ellipse cx="600" cy="300" rx="420" ry="230" fill="url(#glow)"/>
  <g stroke="#93c5fd" stroke-width="5" fill="none" opacity="0.86">
    <line x1="242" y1="194" x2="390" y2="138"/>
    <line x1="242" y1="194" x2="390" y2="248"/>
    <line x1="242" y1="314" x2="390" y2="248"/>
    <line x1="242" y1="314" x2="390" y2="368"/>
    <line x1="242" y1="434" x2="390" y2="368"/>
    <line x1="390" y1="138" x2="562" y2="194"/>
    <line x1="390" y1="248" x2="562" y2="194"/>
    <line x1="390" y1="248" x2="562" y2="314"/>
    <line x1="390" y1="368" x2="562" y2="314"/>
    <line x1="390" y1="368" x2="562" y2="434"/>
    <line x1="562" y1="194" x2="746" y2="254"/>
    <line x1="562" y1="314" x2="746" y2="254"/>
    <line x1="562" y1="314" x2="746" y2="374"/>
    <line x1="562" y1="434" x2="746" y2="374"/>
    <line x1="746" y1="254" x2="940" y2="314"/>
    <line x1="746" y1="374" x2="940" y2="314"/>
  </g>
  <g fill="#c4b5fd">
    <circle cx="242" cy="194" r="18"/>
    <circle cx="242" cy="314" r="18"/>
    <circle cx="242" cy="434" r="18"/>
    <circle cx="390" cy="138" r="18"/>
    <circle cx="390" cy="248" r="18"/>
    <circle cx="390" cy="368" r="18"/>
    <circle cx="562" cy="194" r="18"/>
    <circle cx="562" cy="314" r="18"/>
    <circle cx="562" cy="434" r="18"/>
    <circle cx="746" cy="254" r="18"/>
    <circle cx="746" cy="374" r="18"/>
    <circle cx="940" cy="314" r="18"/>
  </g>
  <rect x="738" y="106" width="340" height="108" rx="18" fill="#31215b" stroke="#7c6fa2"/>
  <text x="768" y="172" fill="#dbeafe" font-size="46" font-family="Arial, sans-serif" font-weight="700">AI Technical</text>
  <text x="718" y="548" fill="#e9ddff" font-size="30" font-family="Arial, sans-serif">ML • DL • GenAI • MLOps</text>
</svg>
